<svg width="112" height="112" viewBox="0 0 112 112" fill="none" xmlns="http://www.w3.org/2000/svg">
<path fill-rule="evenodd" clip-rule="evenodd" d="M100.324 11.7014C89.7571 1.17586 74.5646 0 55.9987 0C37.4091 0 22.1944 1.18971 11.6321 11.7425C1.07234 22.2936 0 37.4839 0 56.053C0 74.6218 1.07234 89.8201 11.6365 100.373C22.1992 110.929 37.4102 111.997 55.9987 111.997C74.5865 111.997 89.7979 110.929 100.361 100.373C110.923 89.8169 111.997 74.6218 111.997 56.053C111.997 37.4602 110.911 22.2524 100.324 11.7014Z" fill="#FF6900"/>
<path fill-rule="evenodd" clip-rule="evenodd" d="M51.8767 76.752C51.8767 77.1278 51.5603 77.4395 51.175 77.4395H41.6242C41.2323 77.4395 40.9145 77.1278 40.9145 76.752V51.7754C40.9145 51.3964 41.2323 51.0862 41.6242 51.0862H51.175C51.5603 51.0862 51.8767 51.3964 51.8767 51.7754V76.752Z" fill="white"/>
<path fill-rule="evenodd" clip-rule="evenodd" d="M70.5769 76.752C70.5769 77.1278 70.2591 77.4395 69.8724 77.4395H60.7811C60.3911 77.4395 60.0733 77.1278 60.0733 76.752V76.6587V55.2028C60.0638 51.4405 59.8488 47.5735 57.9064 45.63C56.2363 43.9548 53.122 43.571 49.8824 43.4905H33.4025C33.0136 43.4905 32.6994 43.8032 32.6994 44.1794V74.4984V76.752C32.6994 77.1278 32.3787 77.4395 31.9897 77.4395H22.8923C22.5038 77.4395 22.191 77.1278 22.191 76.752V35.2496C22.191 34.8687 22.5038 34.5589 22.8923 34.5589H49.1396C55.9993 34.5589 63.1704 34.8716 66.7071 38.4131C70.2591 41.9702 70.5769 49.1285 70.5769 55.9959V76.752Z" fill="white"/>
<path fill-rule="evenodd" clip-rule="evenodd" d="M89.3057 76.752C89.3057 77.1278 88.9846 77.4395 88.5993 77.4395H79.5033C79.1148 77.4395 78.7988 77.1278 78.7988 76.752V35.2496C78.7988 34.8687 79.1148 34.5589 79.5033 34.5589H88.5993C88.9846 34.5589 89.3057 34.8687 89.3057 35.2496V76.752Z" fill="white"/>
</svg>
